<svg width="142" height="140" viewBox="0 0 142 140" fill="none" xmlns="http://www.w3.org/2000/svg">
<path d="M140.5 70C140.5 107.812 109.404 138.5 71 138.5C32.5961 138.5 1.5 107.812 1.5 70C1.5 32.1885 32.5961 1.5 71 1.5C109.404 1.5 140.5 32.1885 140.5 70Z" fill="white" stroke="black" stroke-width="3"/>
<path d="M38.3303 89V52.6364H47.1193V68.0128H47.5987L59.6193 52.6364H69.9709L57.0803 68.8651L70.2017 89H59.6903L50.6349 74.7067L47.1193 79.1456V89H38.3303ZM81.3034 89H71.8574L84.1266 52.6364H95.8276L108.097 89H98.6507L90.1103 61.7983H89.8262L81.3034 89ZM80.0428 74.6889H99.7871V81.3651H80.0428V74.6889Z" fill="black"/>
</svg>
